<svg width="1715" height="1715" viewBox="0 0 1715 1715" fill="none" xmlns="http://www.w3.org/2000/svg">
    <path fill-rule="evenodd" clip-rule="evenodd"
        d="M722.39 1471.16L714.514 1357.18C684.488 1348.55 655.27 1337.27 627.244 1323.47L548.288 1398.53C539 1409.72 518.518 1411.63 507.324 1402.34L445.4 1358.52C428.252 1351.85 426.345 1331.37 435.633 1320.18L484.274 1219.93C462.068 1197.19 441.783 1172.22 423.804 1145.16L314.64 1174.42C302.732 1179.66 282.964 1167.04 277.724 1155.13L246.283 1083.69C238.423 1065.82 245.091 1048.68 256.999 1043.44L352.32 982.715C344.882 952.663 340.255 922.345 338.309 892.095L225.316 858.383C210.788 857.669 202.928 839.807 203.642 825.279L213.166 750.019C213.88 735.49 229.122 721.676 243.65 722.39L357.631 714.514C366.258 684.489 377.545 655.271 391.342 627.245L316.283 548.289C305.089 539.001 303.183 518.519 312.471 507.325L356.291 445.4C365.579 434.206 377.487 428.966 394.635 435.634L494.878 484.274C517.618 462.069 542.592 441.783 569.649 423.805L540.388 314.64C535.148 302.732 547.77 282.964 559.678 277.724L631.126 246.284C648.988 238.424 666.136 245.091 671.376 257L732.097 352.32C763.632 344.516 795.459 339.805 827.194 338.04L859.049 231.271C859.763 216.743 875.005 202.928 889.533 203.642L964.794 213.166C979.322 213.88 993.136 229.122 992.422 243.65L1000.3 357.631C1030.32 366.258 1059.54 377.545 1087.57 391.342L1166.52 316.284C1175.81 305.09 1196.29 303.184 1207.49 312.472L1269.41 356.292C1286.56 362.96 1288.47 383.442 1279.18 394.636L1230.54 494.878C1252.74 517.618 1273.03 542.592 1291.01 569.65L1400.17 540.388C1412.08 535.148 1431.85 547.77 1437.09 559.678L1468.53 631.126C1473.77 643.034 1467.1 660.183 1457.81 671.377L1362.49 732.097C1370.3 763.632 1375.01 795.46 1376.77 827.194L1483.54 859.05C1498.07 859.764 1511.88 875.006 1511.17 889.534L1501.65 964.794C1494.98 981.942 1485.69 993.136 1471.16 992.423L1357.18 1000.3C1348.34 1031.08 1336.7 1061.01 1322.43 1089.67L1401.15 1172.48C1412.34 1181.77 1411.63 1196.29 1402.34 1207.49L1358.52 1269.41C1351.85 1286.56 1331.37 1288.47 1320.18 1279.18L1219.93 1230.54C1197.19 1252.74 1172.22 1273.03 1145.16 1291.01L1174.42 1400.17C1179.66 1412.08 1167.04 1431.85 1155.13 1437.09L1083.69 1468.53C1071.78 1473.77 1054.63 1467.1 1043.44 1457.81L982.715 1362.49C951.18 1370.3 919.352 1375.01 887.618 1376.77L855.763 1483.54C855.049 1498.07 839.807 1511.88 825.279 1511.17L750.018 1501.65C735.49 1500.93 721.676 1485.69 722.39 1471.16Z"
        fill="#F749D4" />
</svg>