<svg width="119" height="84" viewBox="0 0 119 84" fill="none" xmlns="http://www.w3.org/2000/svg">
    <path
        d="M109.477 36.3759C109.477 36.4316 109.477 55.5731 109.477 55.5731L94.2969 58.1067L86.8195 59.3596L78.7977 60.6961V16.7053L94.2969 14.1299V27.7587C95.5055 27.1044 96.7937 26.6172 98.1484 26.3944C104.404 25.3504 109.477 29.819 109.477 36.3759ZM35.0891 44.5336C38.8344 43.9072 41.7695 43.42 41.7695 43.42V23.0394C41.7695 23.0394 19.032 26.8399 18.9789 26.8538C13.6133 27.7587 9.25703 33.0348 9.25703 38.6729C9.25703 43.1972 12.0727 46.5661 15.9773 47.2343C12.7633 47.7773 10.3328 48.181 10.3328 48.181V72.2506C10.3328 72.2506 31.7688 68.6589 31.8219 68.6589C38.157 67.6009 43.2969 61.3503 43.2969 54.71C43.2969 49.239 39.8305 45.2158 35.0891 44.5336ZM76.6727 30.7935C76.6727 23.2483 70.8422 18.1253 63.6438 19.3225C63.5773 19.3364 44.9172 22.4548 44.9172 22.4548V47.0116V49.7541V66.4594L76.1281 61.1554L67.5086 45.3689C73.1797 42.0835 76.6727 36.529 76.6727 30.7935ZM119 0L0 19.9629V84L119 64.0371V0ZM4.90078 24.2923L114.099 5.95824V59.7216L4.90078 78.0418V24.2923Z"
        fill="#F11EC7" />
</svg>