<svg width="164" height="112" viewBox="0 0 164 112" fill="none" xmlns="http://www.w3.org/2000/svg">
    <path
        d="M150.876 48.5012C150.876 48.5754 150.876 74.0974 150.876 74.0974L129.955 77.4756L119.65 79.1462L108.595 80.9281V22.2738L129.955 18.8399V37.0116C131.621 36.1392 133.396 35.4896 135.263 35.1926C143.884 33.8005 150.876 39.7587 150.876 48.5012ZM48.358 59.3782C53.5196 58.5429 57.5647 57.8933 57.5647 57.8933V30.7193C57.5647 30.7193 26.229 35.7865 26.1558 35.8051C18.7612 37.0116 12.7576 44.0464 12.7576 51.5638C12.7576 57.5963 16.6379 62.0882 22.0192 62.9791C17.5897 63.703 14.2402 64.2413 14.2402 64.2413V96.3341C14.2402 96.3341 43.7821 91.5452 43.8554 91.5452C52.5862 90.1346 59.6696 81.8005 59.6696 72.9466C59.6696 65.652 54.8924 60.2877 48.358 59.3782ZM105.667 41.058C105.667 30.9977 97.6313 24.1671 87.7107 25.7633C87.6192 25.7819 61.9027 29.9397 61.9027 29.9397V62.6821V66.3387V88.6125L104.916 81.5406L93.0371 60.4919C100.853 56.1114 105.667 48.7053 105.667 41.058ZM164 0L0 26.6172V112L164 85.3828V0ZM6.75402 32.3898L157.246 7.94432V79.6288L6.75402 104.056V32.3898Z"
        fill="white" />
</svg>