<svg width="164" height="112" viewBox="0 0 196 132" fill="none" xmlns="http://www.w3.org/2000/svg">
    <path
        d="M180.316 57.1621C180.316 57.2496 180.316 87.3291 180.316 87.3291L155.312 91.3106L142.997 93.2794L129.784 95.3795V26.2512L155.312 22.2042V43.6208C157.303 42.5926 159.425 41.827 161.656 41.477C171.959 39.8363 180.316 46.8585 180.316 57.1621ZM57.7938 69.9814C63.9625 68.997 68.7969 68.2314 68.7969 68.2314V36.2048C68.7969 36.2048 31.3469 42.177 31.2594 42.1989C22.4219 43.6208 15.2469 51.9118 15.2469 60.7716C15.2469 67.8813 19.8844 73.1753 26.3156 74.2254C21.0219 75.0786 17.0187 75.713 17.0187 75.713V113.537C17.0187 113.537 52.325 107.893 52.4125 107.893C62.8469 106.23 71.3125 96.4077 71.3125 85.9728C71.3125 77.3755 65.6031 71.0534 57.7938 69.9814ZM126.284 48.3898C126.284 36.533 116.681 28.4826 104.825 30.3639C104.716 30.3858 73.9813 35.286 73.9813 35.286V73.8754V78.185V104.436L125.388 96.1014L111.191 71.294C120.531 66.1313 126.284 57.4027 126.284 48.3898ZM196 0L0 31.3702V132L196 100.63V0ZM8.07187 38.1737L187.928 9.36295V93.8482L8.07187 122.637V38.1737Z"
        fill="#18b31c" />
</svg>